<?xml version="1.0" encoding="utf-8"?>
<!-- Generator: Adobe Illustrator 28.0.0, SVG Export Plug-In . SVG Version: 6.00 Build 0)  -->
<svg version="1.1" id="Layer_1" xmlns="http://www.w3.org/2000/svg" xmlns:xlink="http://www.w3.org/1999/xlink" x="0px" y="0px"
	 viewBox="0 0 57 57" style="enable-background:new 0 0 57 57;" xml:space="preserve">
<style type="text/css">
	.st0{opacity:0.1;fill-rule:evenodd;clip-rule:evenodd;fill:url(#SVGID_1_);enable-background:new    ;}
	.st1{fill:#FE5868;}
</style>
<linearGradient id="SVGID_1_" gradientUnits="userSpaceOnUse" x1="4162.4937" y1="-2767.3264" x2="4804.4814" y2="-2125.3389" gradientTransform="matrix(0.1747 0 0 -0.1747 -755.2409 -398.4862)">
	<stop  offset="0" style="stop-color:#FF5858"/>
	<stop  offset="1" style="stop-color:#F857A6"/>
</linearGradient>
<path class="st0" d="M13.2,0H43c8.4,0,14.9,6.3,14.9,14.5v28.9c0,8.2-6.5,14.5-14.9,14.5H13.2c-8.4,0-14.9-6.3-14.9-14.5V14.5
	C-1.7,6.3,4.8,0,13.2,0z"/>
<g transform="scale(0.7) translate(75, 75)">
	<path id="XMLID_134_" class="st1" d="M-11.1-65.6h-30.3c-1,0-1.8,0.8-1.8,1.8v12.9l1.3-1.5c0.6-0.7,1.5-1.2,2.3-1.4V-62h26.7v23.8
		h-26.7v-4l-0.8,1c-0.7,0.8-1.7,1.4-2.8,1.5v3.4c0,1,0.8,1.8,1.8,1.8h9.8l-5,22.7c-0.2,1,0.4,2,1.4,2.2c1,0.2,2-0.4,2.2-1.4
		l5.2-23.5h3l5.2,23.5c0.2,0.9,1,1.5,1.8,1.5c0.1,0,0.3,0,0.4,0c1-0.2,1.7-1.2,1.4-2.2l-5-22.7h9.7c1,0,1.8-0.8,1.8-1.8v-27.5
		C-9.3-64.8-10.1-65.6-11.1-65.6z"/>
	<path id="XMLID_132_" class="st1" d="M-25.6-55c-0.1-0.4-0.6-0.5-0.9-0.4l-10.7,3.8c-1-0.8-2.4-0.6-3.2,0.3l-3.4,4l-3-2.6
		c0,0.2,0.1,0.4,0.1,0.6v5.6l1.7,1.4c1,0.9,2.5,0.7,3.3-0.3l4.1-4.7l3.3-1.9l8.6-5C-25.6-54.3-25.4-54.6-25.6-55z"/>
	<path id="XMLID_131_" class="st1" d="M-53.5-53.9h-2c-1.6,0-2.9,0.8-3.8,1.9l-6.2,5.7c-1,0.9-1.1,2.4-0.2,3.3l5.1,5.7
		c0.9,1,2.4,1.1,3.3,0.2c1-0.9,1.1-2.4,0.2-3.3l-3.5-3.9l5-4.4l-2.9,3.9l2.8,3.2c1.6,1.7,1.4,4.4-0.3,6c-1.2,1.1-2.8,1.3-4.2,0.8
		c0,0,0,10.9,0,22.6c0,1.6,1.3,2.8,2.8,2.8c1.6,0,2.8-1.3,2.8-2.8c0-11.7,0-5,0-16.9h1.9c0,11.8,0,5.2,0,16.9c0,0.8-0.2,1.6-0.6,2.2
		c0.5,0.4,1.1,0.6,1.7,0.6c1.6,0,2.8-1.3,2.8-2.8c0-11.7,0-6.8,0-36.9C-48.7-51.8-50.8-53.9-53.5-53.9z"/>
	<path id="XMLID_130_" class="st1" d="M-57-55.6c0.8,0.4,1.6,0.6,2.5,0.6c0.9,0,1.8-0.2,2.5-0.6c1.8-0.9,3-2.7,3-4.9
		c0-3-2.5-5.5-5.5-5.5c-3,0-5.5,2.5-5.5,5.5C-60-58.4-58.8-56.6-57-55.6z"/>
</g>
</svg>
