<?xml version="1.0" encoding="UTF-8"?>
<svg width="50" height="50" id="Layer_1" xmlns="http://www.w3.org/2000/svg" viewBox="0 0 898.16 1048.11">
    <defs>
        <style>
            .cls-1{fill:#46fa96;}.cls-1,.cls-2,.cls-3,.cls-4{stroke-width:0px;}.cls-2{fill:#383536;}.cls-3{fill:#55d492;}.cls-4{fill:#231f20;}</style>
    </defs>
    <g id="e">
        <path class="cls-1"
            d="m155.39,468.03c17.58-189.87,190.34-264.88,354.74-249.65,134.96,12.5,241.83,101.12,233.25,193.7-15.62,168.69-404.32,63.46-411.87,145.06-3.41,36.87,87.36,72.18,148.7,77.86,201.21,18.63,210.29-79.44,227.46-77.85,18.4,1.7,18.31,42.84,17.73,49.12-9.23,99.64-134.76,145.78-281.99,132.15-219.61-20.34-299.65-144.86-288.02-270.39Zm172.82-62.34c-.8,8.63,4.54,17.83,20.48,19.3,14.72,1.36,240.92-9.34,244.62-49.36,3.56-38.44-50.91-64.86-97.53-69.17-99.38-9.2-163.36,53.72-167.57,99.22Z" />
    </g>
    <path class="cls-3"
        d="m390.73,326.61c-54.95,17.69-88.36,58.99-91.36,91.44-.8,8.63,4.54,17.83,20.48,19.3,13.05,1.21,192.2-7.07,235.36-36.82-65.99,19.73-195.49,25.48-206.51,24.45-15.95-1.48-21.28-10.68-20.48-19.3,2.44-26.31,24.85-58.43,62.52-79.08Z" />
    <path class="cls-3"
        d="m340.61,540.63c-22.35,5.24-36.56,13.92-37.94,28.87-3.41,36.87,87.36,72.18,148.7,77.86,84.62,7.84,135.25-4.97,166.8-22.32-31.43,10.26-75.41,15.75-137.96,9.96-61.34-5.68-152.12-40.99-148.7-77.86.62-6.67,3.8-12.09,9.1-16.51Z" />
    <path class="cls-3"
        d="m707.67,557.15c-5.12-.47-9.53,7.92-18.52,19.43,8,12.44,7.84,37.28,7.4,42.05-4.23,45.69-32.93,80.12-76.95,102.71,60.11-21.34,100.7-60.04,105.8-115.07.58-6.28.68-47.42-17.73-49.12Z" />
    <path class="cls-3"
        d="m510.13,218.37c-72.05-6.67-145.69,3.99-207.19,34.05,55.01-20.53,117.25-27.34,178.34-21.68,134.96,12.5,241.83,101.12,233.25,193.7-3.22,34.82-22.35,57.96-50.74,73.49,43.86-14.67,75.36-40.25,79.58-85.85,8.57-92.58-98.3-181.21-233.25-193.7Z" />
    <path class="cls-1"
        d="m144.52,166.04c0,7.2-5.87,13.02-13.01,13.02s-13.03-5.82-13.03-13.02,5.87-12.97,13.03-12.97,13.01,5.81,13.01,12.97Z" />
    <polygon class="cls-1" points="146.63 324.5 116.32 324.5 131.51 192.65 146.63 324.5" />
    <path class="cls-4"
        d="m853.13,123.13l-143.91,46.36c-6.59-20.22-32.52-34.58-81.1-45.12-43.68-9.47-101.41-14.66-162.59-14.66s-118.91,5.19-162.59,14.66c-48.98,10.65-74.97,25.16-81.24,45.64l-143.7-45.54L464.55,0l388.58,123.13Z" />
    <path class="cls-4"
        d="m686.32,169.85v120.14c-23.47-25.06-124.21-39.72-220.79-39.72s-197.32,14.66-220.78,39.72v-120.14c0-22.13,88.7-45.84,220.78-45.84s220.79,23.72,220.79,45.84Z" />
    <path class="cls-2"
        d="m462.65.61L78,124.46l143.7,45.54c6.28-20.48,32.26-34.99,81.24-45.64,43-9.32,99.6-14.49,159.71-14.65V.61Z" />
    <path class="cls-2"
        d="m462.65,124.02c-130.47.34-217.9,23.87-217.9,45.83v120.14c23.23-24.81,122.21-39.41,217.9-39.71v-126.26Z" />
</svg>